<svg width="208" height="18" viewBox="0 0 208 18" fill="none" xmlns="http://www.w3.org/2000/svg">
<path d="M7.704 11.408L4.416 9.968C3.072 9.376 2.12 8.704 1.56 7.952C1 7.184 0.72 6.192 0.72 4.976C0.72 3.12 1.224 1.848 2.232 1.16C3.24 0.455999 5.008 0.103999 7.536 0.103999C9.952 0.103999 11.96 0.383999 13.56 0.943999L13.248 4.28C11.328 4.248 9.384 4.232 7.416 4.232C6.808 4.232 6.4 4.272 6.192 4.352C5.984 4.432 5.88 4.6 5.88 4.856C5.88 5.08 5.976 5.272 6.168 5.432C6.376 5.576 6.76 5.76 7.32 5.984L10.32 7.232C11.68 7.824 12.64 8.504 13.2 9.272C13.76 10.04 14.04 11.04 14.04 12.272C14.04 14.144 13.552 15.456 12.576 16.208C11.6 16.96 9.832 17.336 7.272 17.336C5.112 17.336 2.976 17.064 0.864 16.52L1.176 12.872C4.344 12.952 6.352 12.992 7.2 12.992C7.856 12.992 8.288 12.952 8.496 12.872C8.72 12.792 8.832 12.64 8.832 12.416C8.832 12.192 8.752 12.008 8.592 11.864C8.448 11.72 8.152 11.568 7.704 11.408ZM28.0404 13.112L28.2804 16.784C26.6804 16.992 23.8084 17.096 19.6644 17.096C18.5284 17.096 17.5924 16.752 16.8564 16.064C16.1364 15.36 15.7764 14.448 15.7764 13.328V4.112C15.7764 2.992 16.1364 2.088 16.8564 1.4C17.5924 0.696 18.5284 0.344 19.6644 0.344C23.8084 0.344 26.6804 0.447999 28.2804 0.655999L28.0404 4.328H21.9684C21.6644 4.328 21.4244 4.408 21.2484 4.568C21.0724 4.728 20.9844 4.936 20.9844 5.192V6.8H27.1764V10.256H20.9844V12.248C20.9844 12.504 21.0724 12.712 21.2484 12.872C21.4244 13.032 21.6644 13.112 21.9684 13.112H28.0404ZM44.8573 17H39.4093L38.3293 12.08C38.2333 11.632 38.0813 11.336 37.8733 11.192C37.6813 11.032 37.3613 10.952 36.9133 10.952H35.3053V17H30.1933V0.439999C31.8253 0.279999 34.1693 0.199999 37.2253 0.199999C39.7213 0.199999 41.5053 0.567999 42.5773 1.304C43.6653 2.04 44.2093 3.352 44.2093 5.24C44.2093 7.64 43.0893 8.952 40.8493 9.176V9.32C42.3533 9.512 43.2573 10.376 43.5613 11.912L44.8573 17ZM35.3053 7.28H37.1053C37.8573 7.28 38.3533 7.168 38.5933 6.944C38.8493 6.72 38.9773 6.264 38.9773 5.576C38.9773 4.888 38.8493 4.432 38.5933 4.208C38.3533 3.984 37.8573 3.872 37.1053 3.872H35.3053V7.28ZM61.0811 0.439999L57.0491 15.608C56.9531 16.024 56.7451 16.36 56.4251 16.616C56.1051 16.872 55.7211 17 55.2731 17H50.7131C50.2651 17 49.8811 16.872 49.5611 16.616C49.2411 16.36 49.0331 16.024 48.9371 15.608L44.9051 0.439999H50.2571L52.3931 11.216C52.4251 11.36 52.5291 11.992 52.7051 13.112H53.2811C53.3451 12.552 53.4491 11.92 53.5931 11.216L55.7291 0.439999H61.0811ZM67.4633 17H62.3033V0.439999H67.4633V17ZM76.4462 11.408L73.1582 9.968C71.8142 9.376 70.8622 8.704 70.3022 7.952C69.7422 7.184 69.4622 6.192 69.4622 4.976C69.4622 3.12 69.9662 1.848 70.9742 1.16C71.9822 0.455999 73.7502 0.103999 76.2782 0.103999C78.6942 0.103999 80.7022 0.383999 82.3022 0.943999L81.9902 4.28C80.0702 4.248 78.1262 4.232 76.1582 4.232C75.5502 4.232 75.1422 4.272 74.9342 4.352C74.7262 4.432 74.6222 4.6 74.6222 4.856C74.6222 5.08 74.7182 5.272 74.9102 5.432C75.1182 5.576 75.5022 5.76 76.0622 5.984L79.0622 7.232C80.4222 7.824 81.3822 8.504 81.9422 9.272C82.5022 10.04 82.7822 11.04 82.7822 12.272C82.7822 14.144 82.2942 15.456 81.3182 16.208C80.3422 16.96 78.5742 17.336 76.0142 17.336C73.8542 17.336 71.7182 17.064 69.6062 16.52L69.9182 12.872C73.0862 12.952 75.0942 12.992 75.9422 12.992C76.5982 12.992 77.0302 12.952 77.2382 12.872C77.4622 12.792 77.5742 12.64 77.5742 12.416C77.5742 12.192 77.4942 12.008 77.3342 11.864C77.1902 11.72 76.8942 11.568 76.4462 11.408ZM84.6386 17V0.439999C87.4546 0.279999 89.8146 0.199999 91.7186 0.199999C93.6866 0.199999 95.2066 0.447999 96.2786 0.943999C97.3666 1.424 98.1666 2.28 98.6786 3.512C99.1906 4.728 99.4466 6.464 99.4466 8.72C99.4466 10.976 99.1906 12.72 98.6786 13.952C98.1666 15.168 97.3666 16.024 96.2786 16.52C95.2066 17 93.6866 17.24 91.7186 17.24C89.3186 17.24 86.9586 17.16 84.6386 17ZM89.8466 13.448L91.7186 13.472C92.6146 13.472 93.2066 13.16 93.4946 12.536C93.7986 11.896 93.9506 10.624 93.9506 8.72C93.9506 6.816 93.7986 5.552 93.4946 4.928C93.2066 4.288 92.6146 3.968 91.7186 3.968H89.8466V13.448ZM108.691 0.103999C110.659 0.103999 112.179 0.351999 113.251 0.847999C114.339 1.328 115.139 2.192 115.651 3.44C116.163 4.672 116.419 6.432 116.419 8.72C116.419 11.008 116.163 12.776 115.651 14.024C115.139 15.256 114.339 16.12 113.251 16.616C112.179 17.096 110.659 17.336 108.691 17.336C106.739 17.336 105.219 17.096 104.131 16.616C103.059 16.12 102.267 15.256 101.755 14.024C101.243 12.776 100.987 11.008 100.987 8.72C100.987 6.432 101.243 4.672 101.755 3.44C102.267 2.192 103.059 1.328 104.131 0.847999C105.219 0.351999 106.739 0.103999 108.691 0.103999ZM110.467 4.928C110.179 4.288 109.587 3.968 108.691 3.968C107.795 3.968 107.195 4.288 106.891 4.928C106.603 5.552 106.459 6.816 106.459 8.72C106.459 10.624 106.603 11.896 106.891 12.536C107.195 13.16 107.795 13.472 108.691 13.472C109.587 13.472 110.179 13.16 110.467 12.536C110.771 11.896 110.923 10.624 110.923 8.72C110.923 6.816 110.771 5.552 110.467 4.928ZM132.092 0.439999H136.676C137.844 0.439999 138.452 1.04 138.5 2.24L139.076 17H134.396L133.892 4.328H133.532L131.9 12.776C131.724 13.832 131.068 14.36 129.932 14.36H127.244C126.108 14.36 125.444 13.832 125.252 12.776L123.596 4.328H123.236L122.828 17H118.148L118.724 2.24C118.772 1.04 119.38 0.439999 120.548 0.439999H125.036C126.156 0.439999 126.812 0.975999 127.004 2.048L128.204 8.624C128.284 9.136 128.372 9.96 128.468 11.096H128.684C128.684 11.048 128.716 10.704 128.78 10.064C128.86 9.424 128.924 8.944 128.972 8.624L130.1 2.048C130.292 0.975999 130.956 0.439999 132.092 0.439999ZM152.711 3.776H148.367C147.391 3.776 146.743 3.968 146.423 4.352C146.103 4.736 145.919 5.576 145.871 6.872C146.623 6.328 147.695 6.056 149.087 6.056C150.975 6.056 152.271 6.44 152.975 7.208C153.679 7.976 154.031 9.272 154.031 11.096C154.031 12.248 153.935 13.192 153.743 13.928C153.567 14.664 153.239 15.296 152.759 15.824C152.295 16.352 151.639 16.728 150.791 16.952C149.943 17.176 148.863 17.288 147.551 17.288C146.255 17.288 145.199 17.176 144.383 16.952C143.583 16.712 142.903 16.272 142.343 15.632C141.799 14.992 141.415 14.136 141.191 13.064C140.983 11.992 140.879 10.592 140.879 8.864C140.879 7.616 140.943 6.528 141.071 5.6C141.215 4.672 141.431 3.888 141.719 3.248C142.023 2.608 142.367 2.088 142.751 1.688C143.135 1.272 143.623 0.951999 144.215 0.727999C144.807 0.503999 145.423 0.351999 146.063 0.271999C146.703 0.191999 147.471 0.151999 148.367 0.151999C150.191 0.151999 151.703 0.328 152.903 0.68L152.711 3.776ZM147.599 13.664C148.319 13.664 148.759 13.512 148.919 13.208C149.095 12.904 149.183 12.24 149.183 11.216C149.183 10.464 149.079 9.984 148.871 9.776C148.679 9.568 148.231 9.464 147.527 9.464C146.967 9.464 146.407 9.6 145.847 9.872C145.863 11.568 145.967 12.624 146.159 13.04C146.351 13.456 146.831 13.664 147.599 13.664ZM167.313 3.776H162.969C161.993 3.776 161.345 3.968 161.025 4.352C160.705 4.736 160.521 5.576 160.473 6.872C161.225 6.328 162.297 6.056 163.689 6.056C165.577 6.056 166.873 6.44 167.577 7.208C168.281 7.976 168.633 9.272 168.633 11.096C168.633 12.248 168.537 13.192 168.345 13.928C168.169 14.664 167.841 15.296 167.361 15.824C166.897 16.352 166.241 16.728 165.393 16.952C164.545 17.176 163.465 17.288 162.153 17.288C160.857 17.288 159.801 17.176 158.985 16.952C158.185 16.712 157.505 16.272 156.945 15.632C156.401 14.992 156.017 14.136 155.793 13.064C155.585 11.992 155.481 10.592 155.481 8.864C155.481 7.616 155.545 6.528 155.673 5.6C155.817 4.672 156.033 3.888 156.321 3.248C156.625 2.608 156.969 2.088 157.353 1.688C157.737 1.272 158.225 0.951999 158.817 0.727999C159.409 0.503999 160.025 0.351999 160.665 0.271999C161.305 0.191999 162.073 0.151999 162.969 0.151999C164.793 0.151999 166.305 0.328 167.505 0.68L167.313 3.776ZM162.201 13.664C162.921 13.664 163.361 13.512 163.521 13.208C163.697 12.904 163.785 12.24 163.785 11.216C163.785 10.464 163.681 9.984 163.473 9.776C163.281 9.568 162.833 9.464 162.129 9.464C161.569 9.464 161.009 9.6 160.449 9.872C160.465 11.568 160.569 12.624 160.761 13.04C160.953 13.456 161.433 13.664 162.201 13.664ZM171.786 12.56H172.914C173.57 12.56 174.018 12.688 174.258 12.944C174.514 13.184 174.642 13.632 174.642 14.288V15.272C174.642 15.928 174.514 16.384 174.258 16.64C174.018 16.88 173.57 17 172.914 17H171.786C171.13 17 170.674 16.88 170.418 16.64C170.178 16.384 170.058 15.928 170.058 15.272V14.288C170.058 13.632 170.178 13.184 170.418 12.944C170.674 12.688 171.13 12.56 171.786 12.56ZM191.365 17H185.917L184.837 12.08C184.741 11.632 184.589 11.336 184.381 11.192C184.189 11.032 183.869 10.952 183.421 10.952H181.813V17H176.701V0.439999C178.333 0.279999 180.677 0.199999 183.733 0.199999C186.229 0.199999 188.013 0.567999 189.085 1.304C190.173 2.04 190.717 3.352 190.717 5.24C190.717 7.64 189.597 8.952 187.357 9.176V9.32C188.861 9.512 189.765 10.376 190.069 11.912L191.365 17ZM181.813 7.28H183.613C184.365 7.28 184.861 7.168 185.101 6.944C185.357 6.72 185.485 6.264 185.485 5.576C185.485 4.888 185.357 4.432 185.101 4.208C184.861 3.984 184.365 3.872 183.613 3.872H181.813V7.28ZM207.464 0.439999V10.16C207.464 12.8 206.936 14.656 205.88 15.728C204.824 16.8 203 17.336 200.408 17.336C197.608 17.336 195.64 16.8 194.504 15.728C193.368 14.656 192.8 12.8 192.8 10.16V0.439999H198.008V10.16C198.008 11.488 198.152 12.376 198.44 12.824C198.728 13.256 199.296 13.472 200.144 13.472C200.976 13.472 201.536 13.256 201.824 12.824C202.112 12.376 202.256 11.488 202.256 10.16V0.439999H207.464Z" fill="black"/>
</svg>
